<svg id="visual" viewBox="0 0 900 600" width="900" height="600" xmlns="http://www.w3.org/2000/svg" xmlns:xlink="http://www.w3.org/1999/xlink" version="1.1"><rect x="0" y="0" width="900" height="600" fill="#f3f3f3"></rect><defs><linearGradient id="grad1_0" x1="33.3%" y1="0%" x2="100%" y2="100%"><stop offset="20%" stop-color="#f3f3f3" stop-opacity="1"></stop><stop offset="80%" stop-color="#f3f3f3" stop-opacity="1"></stop></linearGradient></defs><defs><linearGradient id="grad2_0" x1="0%" y1="0%" x2="66.7%" y2="100%"><stop offset="20%" stop-color="#f3f3f3" stop-opacity="1"></stop><stop offset="80%" stop-color="#f3f3f3" stop-opacity="1"></stop></linearGradient></defs><g transform="translate(900, 0)"><path d="M0 378.6C-51.1 375.4 -102.2 372.2 -144.9 349.8C-187.6 327.4 -221.8 285.7 -245.4 245.4C-268.9 205 -281.7 165.8 -302.1 125.1C-322.5 84.4 -350.6 42.2 -378.6 0L0 0Z" fill="#f49910"></path></g><g transform="translate(0, 600)"><path d="M0 -378.6C39.9 -349.8 79.9 -321 127.1 -306.7C174.2 -292.5 228.6 -292.7 267.7 -267.7C306.8 -242.7 330.5 -192.3 346.5 -143.5C362.4 -94.7 370.5 -47.3 378.6 0L0 0Z" fill="#f49910"></path></g></svg>